<svg class="bi bi-book" width="1em" height="1em" fill="currentColor" version="1.1" viewBox="0 0 16 16" xmlns="http://www.w3.org/2000/svg" xmlns:cc="http://creativecommons.org/ns#" xmlns:dc="http://purl.org/dc/elements/1.1/" xmlns:rdf="http://www.w3.org/1999/02/22-rdf-syntax-ns#">
  <style>
    path {
      fill: #000;
    }
    @media (prefers-color-scheme: dark) {
      path {
        fill: #fff;
      }
    }
  </style>
 <path d="m3.7107 5.1692v6.0803c0.56251-0.21446 1.2911-0.42402 2.0141-0.49633 0.67035-0.06802 1.3958-0.0239 1.9688 0.30147v-5.9719c-0.40074-0.42219-1.0919-0.5429-1.9069-0.46079-0.75613 0.075981-1.5337 0.32047-2.076 0.54719zm4.5956-0.086397v5.9719c0.57292-0.32476 1.299-0.36949 1.9688-0.30209 0.72305 0.07353 1.4522 0.28248 2.0141 0.49694v-6.0803c-0.54228-0.22672-1.3199-0.47121-2.076-0.54719-0.81496-0.082109-1.5061 0.038603-1.9069 0.46079zm-0.30638-0.55393c-0.60356-0.519-1.4786-0.59621-2.2751-0.51655-0.9277 0.093751-1.864 0.41177-2.4473 0.67709a0.30638 0.30638 0 0 0-0.17954 0.2788v6.7403a0.30638 0.30638 0 0 0 0.43321 0.2788c0.54045-0.2451 1.4112-0.53983 2.2549-0.62501 0.86337-0.08701 1.587 0.05331 1.9749 0.53738a0.30638 0.30638 0 0 0 0.47795 0c0.38787-0.48407 1.1115-0.62439 1.9743-0.53738 0.84437 0.08517 1.7157 0.3799 2.2555 0.62501a0.30638 0.30638 0 0 0 0.43321-0.2788v-6.7403a0.30638 0.30638 0 0 0-0.17954-0.2788c-0.58334-0.26532-1.5196-0.58334-2.4473-0.67709-0.79658-0.08027-1.6716-0.0024511-2.2751 0.51655z" fill="#e5e5e5" fill-rule="evenodd" stroke-width=".61275" style="mix-blend-mode:normal"/>
</svg>
